<svg version="1.1" id="Layer_1" xmlns="http://www.w3.org/2000/svg" xmlns:xlink="http://www.w3.org/1999/xlink" x="0px" y="0px"
	 width="100%" viewBox="0 0 285 278" enable-background="new 0 0 285 278" xml:space="preserve">
<path fill="#000000" opacity="1.000000" stroke="none" 
	d="
M199.000000,279.000000 
	C132.695908,279.000000 66.891808,279.000000 1.043856,279.000000 
	C1.043856,186.403748 1.043856,93.807457 1.043856,1.105588 
	C95.887314,1.105588 190.774796,1.105588 285.831116,1.105588 
	C285.831116,93.666412 285.831116,186.333191 285.831116,279.000000 
	C257.140961,279.000000 228.320480,279.000000 199.000000,279.000000 
M257.094055,152.530670 
	C257.393341,152.700790 257.692657,152.870911 258.004913,152.993042 
	C258.004913,152.993042 257.958252,153.010208 258.114441,153.511948 
	C258.407104,153.683441 258.699768,153.854919 259.005066,153.995758 
	C259.005066,153.995758 258.974182,154.007690 259.104279,154.522736 
	C259.402588,154.687332 259.700897,154.851929 260.003662,154.995682 
	C260.003662,154.995682 259.984009,155.003983 260.221252,155.622696 
	C260.879852,156.749512 261.538452,157.876328 262.078827,159.677673 
	C262.482666,160.472244 262.886475,161.266830 263.193115,162.496506 
	C263.193115,162.496506 263.300598,162.929199 263.124298,163.706070 
	C262.133636,166.815079 261.143005,169.924088 260.036346,173.645477 
	C259.992554,174.058258 259.948761,174.471039 259.302307,174.966125 
	C258.860809,175.306671 258.419281,175.647232 258.002838,176.002441 
	C258.002838,176.002441 257.992340,175.975204 257.481140,176.115280 
	C257.324799,176.415833 257.168457,176.716385 257.004547,177.003052 
	C257.004547,177.003052 257.020294,177.006012 256.413940,177.290924 
	C253.935913,179.524078 251.457870,181.757233 249.003632,184.001266 
	C249.003632,184.001266 248.991699,183.977463 248.271820,184.053116 
	C246.735397,184.964630 245.227020,185.927780 243.658279,186.779770 
	C225.690033,196.538498 206.207504,202.240158 186.785858,208.158157 
	C178.100952,210.804550 169.598877,214.051010 161.001831,217.002441 
	C161.001831,217.002441 161.021576,217.019196 160.234146,217.064407 
	C151.677368,220.985657 142.987091,224.646164 134.616440,228.931046 
	C129.982452,231.303146 127.458565,235.535019 127.815758,241.783218 
	C128.273956,245.195633 127.724998,249.254379 129.409744,251.879669 
	C132.478210,256.661102 136.252396,263.268829 140.839523,264.330658 
	C150.953766,266.671906 161.594955,264.426636 172.605255,261.891174 
	C173.697861,261.578857 174.779358,261.218842 175.884766,260.961487 
	C191.369873,257.356262 205.600540,251.108612 218.000000,241.000000 
	C218.000000,241.000000 218.005798,241.011276 218.526337,240.899963 
	C218.699844,240.604309 218.873352,240.308640 218.996933,240.000183 
	C218.996933,240.000183 219.023163,240.044556 219.718918,239.961563 
	C222.155807,237.983948 224.592682,236.006348 227.001938,233.997971 
	C227.001938,233.997971 227.017792,234.035278 227.518661,233.888031 
	C227.687866,233.596970 227.857071,233.305923 227.998779,232.998138 
	C227.998779,232.998138 228.014633,233.026047 228.523483,232.890381 
	C228.693497,232.596619 228.863510,232.302872 228.994507,231.994614 
	C228.994507,231.994614 229.009628,232.033386 229.515259,231.883514 
	C229.691025,231.591019 229.866791,231.298523 229.993286,230.991394 
	C229.993286,230.991394 230.005905,231.041199 230.519638,230.892212 
	C230.692474,230.593567 230.865326,230.294907 230.985901,229.985718 
	C230.985901,229.985718 230.996353,230.037994 231.514023,229.894989 
	C231.691010,229.596848 231.867981,229.298691 231.990311,228.989410 
	C231.990311,228.989410 232.001648,229.044022 232.523544,228.889084 
	C232.693680,228.582306 232.863815,228.275513 233.452621,227.781158 
	C233.715302,227.597260 233.886536,227.350021 234.486664,226.898743 
	C234.665741,226.601761 234.844833,226.304779 234.996185,225.996124 
	C234.996185,225.996124 235.007919,226.023819 235.516190,225.883179 
	C235.690674,225.590363 235.865158,225.297546 235.996262,224.992630 
	C235.996262,224.992630 236.015198,225.033463 236.643768,224.801117 
	C238.110367,222.872421 239.576950,220.943710 240.996490,218.998840 
	C240.996490,218.998840 241.018448,219.043472 241.644928,218.776108 
	C245.476761,213.242889 249.711060,207.941483 253.058594,202.129333 
	C260.568970,189.089371 265.720398,175.164108 267.609161,159.610992 
	C267.619843,158.678238 267.630524,157.745483 267.735077,156.230362 
	C267.704651,155.838989 267.674225,155.447632 267.892853,154.547897 
	C267.921844,154.361435 267.950836,154.174973 268.000000,154.000458 
	C268.000000,154.000458 267.983368,153.984161 268.693115,153.497284 
	C268.492706,145.640747 268.292267,137.784210 267.939240,129.067169 
	C267.549347,125.465363 267.510132,121.783989 266.713776,118.274429 
	C260.706512,91.801788 248.354172,69.090775 228.041611,50.583858 
	C207.873535,32.208603 184.127472,22.099535 157.496368,19.346722 
	C139.408966,17.477057 121.298531,19.369648 103.992424,26.101402 
	C91.321083,31.030323 79.325195,37.106266 68.864677,45.840939 
	C59.256985,53.863495 49.560650,61.812786 46.053818,74.820587 
	C43.968174,82.556816 45.274601,85.112556 53.224148,84.805519 
	C62.757454,84.437317 72.284508,82.781013 81.785606,82.989410 
	C93.743263,83.251701 105.739822,84.346771 117.593910,85.989479 
	C129.367691,87.621056 133.516541,95.660477 127.931473,104.472588 
	C126.615051,106.549637 125.115227,108.599396 123.337967,110.278816 
	C117.895004,115.422089 118.045746,116.381035 125.294495,118.814682 
	C126.673622,119.277695 128.123260,119.575737 129.563461,119.804451 
	C138.253433,121.184540 146.966736,122.424179 155.641022,123.894997 
	C172.832016,126.809914 190.107300,129.352600 207.150848,132.975357 
	C222.591064,136.257309 238.077820,139.858871 252.137466,148.475861 
	C252.450836,148.558319 252.764221,148.640778 253.524368,148.868973 
	C253.524368,148.868973 253.982941,148.971603 254.192276,149.529739 
	C254.798111,150.018692 255.403946,150.507645 256.001221,150.999390 
	C256.001221,150.999390 256.005157,150.991196 256.117950,151.504929 
	C256.407532,151.682495 256.697083,151.860062 257.005615,151.997131 
	C257.005615,151.997131 256.963318,152.011536 257.094055,152.530670 
M40.013958,87.984253 
	C40.013958,87.984253 40.009045,87.970284 39.952629,87.236633 
	C39.812386,85.035522 39.672142,82.834412 39.531898,80.633301 
	C39.200996,80.502068 38.870094,80.370827 38.539192,80.239594 
	C36.670963,84.474533 34.802738,88.709473 32.312336,93.323875 
	C23.320320,114.737282 21.115612,136.989304 23.992672,159.895355 
	C25.866587,174.814743 30.928921,188.627701 37.946453,201.844696 
	C39.516140,204.801086 41.710697,205.272507 44.491192,204.926941 
	C57.634762,203.293381 70.742264,201.291901 83.921600,200.044693 
	C98.502243,198.664856 113.176956,198.273361 127.754578,196.868958 
	C140.279953,195.662277 152.861099,194.290039 165.163666,191.757523 
	C174.503326,189.834915 183.804047,186.681213 190.890671,179.533493 
	C194.468155,175.925156 193.808395,171.987900 189.629013,168.920059 
	C181.881866,163.233307 172.772781,161.067429 163.717560,159.120682 
	C140.799454,154.193588 117.721535,149.998764 94.845085,144.894547 
	C85.544144,142.819305 76.266426,139.886078 67.594612,135.976013 
	C60.235592,132.657898 57.279961,126.588875 66.338097,120.333542 
	C71.954697,116.454842 78.051163,113.242905 84.064758,109.975632 
	C89.385910,107.084587 95.000137,104.722397 100.247948,101.713333 
	C101.850388,100.794495 102.667961,98.506866 103.844971,96.846100 
	C102.264984,95.885262 100.789986,94.411224 99.084793,94.062355 
	C94.454758,93.115074 89.727180,92.644577 84.577576,91.245697 
	C77.486351,91.167702 70.383118,91.319099 63.307186,90.948799 
	C55.864346,90.559303 48.447624,89.670738 41.013039,88.985672 
	C41.013039,88.985672 40.998001,88.980415 40.862274,88.495773 
	C40.583836,88.327469 40.305393,88.159164 40.013958,87.984253 
z"/>
<path fill="#1296D3" opacity="1.000000" stroke="none" 
	d="
M251.971069,147.972214 
	C238.077820,139.858871 222.591064,136.257309 207.150848,132.975357 
	C190.107300,129.352600 172.832016,126.809914 155.641022,123.894997 
	C146.966736,122.424179 138.253433,121.184540 129.563461,119.804451 
	C128.123260,119.575737 126.673622,119.277695 125.294495,118.814682 
	C118.045746,116.381035 117.895004,115.422089 123.337967,110.278816 
	C125.115227,108.599396 126.615051,106.549637 127.931473,104.472588 
	C133.516541,95.660477 129.367691,87.621056 117.593910,85.989479 
	C105.739822,84.346771 93.743263,83.251701 81.785606,82.989410 
	C72.284508,82.781013 62.757454,84.437317 53.224148,84.805519 
	C45.274601,85.112556 43.968174,82.556816 46.053818,74.820587 
	C49.560650,61.812786 59.256985,53.863495 68.864677,45.840939 
	C79.325195,37.106266 91.321083,31.030323 103.992424,26.101402 
	C121.298531,19.369648 139.408966,17.477057 157.496368,19.346722 
	C184.127472,22.099535 207.873535,32.208603 228.041611,50.583858 
	C248.354172,69.090775 260.706512,91.801788 266.713776,118.274429 
	C267.510132,121.783989 267.549347,125.465363 268.007324,129.968826 
	C268.044739,138.575043 268.014038,146.279602 267.983368,153.984161 
	C267.983368,153.984161 268.000000,154.000458 267.842651,154.070374 
	C267.462036,154.435410 267.448212,154.740738 267.643799,155.056259 
	C267.674225,155.447632 267.704651,155.838989 267.423584,156.691895 
	C266.722687,158.095612 266.333221,159.037796 265.640564,159.936462 
	C264.585907,159.585510 263.834412,159.278061 263.003021,158.641174 
	C261.943390,157.209167 260.963715,156.106583 259.984009,155.003983 
	C259.984009,155.003983 260.003662,154.995682 259.885620,154.787415 
	C259.562286,154.306503 259.297821,154.116013 258.974182,154.007690 
	C258.974182,154.007690 259.005066,153.995758 258.884064,153.788971 
	C258.555206,153.306488 258.286957,153.115845 257.958252,153.010208 
	C257.958252,153.010208 258.004913,152.993042 257.879028,152.798035 
	C257.546600,152.330093 257.283325,152.132935 256.963318,152.011536 
	C256.963318,152.011536 257.005615,151.997131 256.893127,151.791962 
	C256.586609,151.304260 256.328125,151.105743 256.005157,150.991196 
	C256.005157,150.991196 256.001221,150.999390 255.925751,150.701843 
	C255.227829,149.926727 254.605392,149.449158 253.982941,148.971603 
	C253.982941,148.971603 253.524368,148.868973 253.157471,148.615143 
	C252.560791,148.140198 252.287628,148.010498 251.971069,147.972214 
z"/>
<path fill="#22BDC6" opacity="1.000000" stroke="none" 
	d="
M85.038269,91.985069 
	C89.727180,92.644577 94.454758,93.115074 99.084793,94.062355 
	C100.789986,94.411224 102.264984,95.885262 103.844971,96.846100 
	C102.667961,98.506866 101.850388,100.794495 100.247948,101.713333 
	C95.000137,104.722397 89.385910,107.084587 84.064758,109.975632 
	C78.051163,113.242905 71.954697,116.454842 66.338097,120.333542 
	C57.279961,126.588875 60.235592,132.657898 67.594612,135.976013 
	C76.266426,139.886078 85.544144,142.819305 94.845085,144.894547 
	C117.721535,149.998764 140.799454,154.193588 163.717560,159.120682 
	C172.772781,161.067429 181.881866,163.233307 189.629013,168.920059 
	C193.808395,171.987900 194.468155,175.925156 190.890671,179.533493 
	C183.804047,186.681213 174.503326,189.834915 165.163666,191.757523 
	C152.861099,194.290039 140.279953,195.662277 127.754578,196.868958 
	C113.176956,198.273361 98.502243,198.664856 83.921600,200.044693 
	C70.742264,201.291901 57.634762,203.293381 44.491192,204.926941 
	C41.710697,205.272507 39.516140,204.801086 37.946453,201.844696 
	C30.928921,188.627701 25.866587,174.814743 23.992672,159.895355 
	C21.115612,136.989304 23.320320,114.737282 32.936081,92.988510 
	C35.709564,91.092194 37.859303,89.531235 40.009041,87.970276 
	C40.009045,87.970284 40.013958,87.984253 40.158318,88.174805 
	C40.505360,88.603271 40.737137,88.808289 40.998001,88.980415 
	C40.998001,88.980415 41.013039,88.985672 41.165314,89.316315 
	C43.257256,90.411186 45.186241,91.804367 47.138329,91.837517 
	C59.768833,92.051987 72.404381,91.969925 85.038269,91.985069 
z"/>
<path fill="#1297D5" opacity="1.000000" stroke="none" 
	d="
M233.966354,227.039459 
	C233.886536,227.350021 233.715302,227.597260 233.023193,228.004333 
	C232.396393,228.499680 232.199020,228.771851 232.001648,229.044022 
	C232.001648,229.044022 231.990311,228.989410 231.795654,229.115631 
	C231.399460,229.507233 231.197906,229.772614 230.996353,230.037994 
	C230.996353,230.037994 230.985901,229.985718 230.791702,230.112915 
	C230.400299,230.507126 230.203094,230.774155 230.005905,231.041199 
	C230.005905,231.041199 229.993286,230.991394 229.794495,231.113007 
	C229.400345,231.500854 229.204987,231.767120 229.009628,232.033386 
	C229.009628,232.033386 228.994507,231.994614 228.793732,232.115433 
	C228.318237,232.439514 228.125473,232.702789 228.014633,233.026047 
	C228.014633,233.026047 227.998779,232.998138 227.789185,233.115463 
	C227.300858,233.436264 227.113586,233.703751 227.017792,234.035278 
	C227.017792,234.035278 227.001938,233.997971 226.648621,234.028030 
	C223.871277,236.053589 221.447220,238.049072 219.023163,240.044556 
	C219.023163,240.044556 218.996933,240.000183 218.801392,240.119049 
	C218.331192,240.437805 218.131180,240.695602 218.005798,241.011276 
	C218.005798,241.011276 218.000000,241.000000 217.632721,241.001511 
	C215.884171,241.543869 214.455307,241.988052 213.129471,242.641342 
	C204.957962,246.667648 196.875595,250.881561 188.630569,254.749542 
	C183.131531,257.329285 177.411789,259.438599 171.790833,261.758484 
	C161.594955,264.426636 150.953766,266.671906 140.839523,264.330658 
	C136.252396,263.268829 132.478210,256.661102 129.409744,251.879669 
	C127.724998,249.254379 128.273956,245.195633 128.301086,241.255493 
	C130.848938,237.494019 132.188156,233.128159 135.119980,231.255035 
	C141.857117,226.950699 149.395142,223.909653 156.548294,220.239288 
	C158.164597,219.409958 159.536942,218.105133 161.021576,217.019196 
	C161.021576,217.019196 161.001831,217.002441 161.422150,217.039642 
	C163.150696,216.889145 164.514008,216.877197 165.758820,216.487106 
	C182.178452,211.341492 198.717453,206.529129 214.939575,200.818085 
	C225.343414,197.155396 235.307648,192.222717 245.379471,187.661789 
	C246.840149,187.000336 247.800064,185.233032 248.991699,183.977463 
	C248.991699,183.977463 249.003632,184.001266 249.373444,183.982574 
	C253.612793,183.154694 257.329834,182.186005 257.020294,177.006012 
	C257.020294,177.006012 257.004547,177.003052 257.222595,176.889069 
	C257.708313,176.566254 257.892212,176.299622 257.992340,175.975204 
	C257.992340,175.975204 258.002838,176.002441 258.272400,175.941010 
	C258.996307,175.547653 259.450653,175.215744 259.904968,174.883820 
	C259.948761,174.471039 259.992554,174.058258 260.393066,173.411911 
	C260.867249,175.376297 261.821045,177.990921 260.967102,179.704895 
	C255.208160,191.263748 249.048340,202.622421 243.068848,214.072311 
	C242.242447,215.654739 241.695007,217.382812 241.018433,219.043457 
	C241.018448,219.043472 240.996490,218.998840 240.650360,219.030579 
	C236.897186,219.632385 235.959549,221.976196 236.015198,225.033463 
	C236.015198,225.033463 235.996262,224.992630 235.794998,225.111496 
	C235.315170,225.433365 235.119904,225.697845 235.007919,226.023819 
	C235.007919,226.023819 234.996185,225.996124 234.784119,226.117264 
	C234.370148,226.505417 234.168243,226.772430 233.966354,227.039459 
z"/>
<path fill="#278BAB" opacity="1.000000" stroke="none" 
	d="
M248.631760,184.015289 
	C247.800064,185.233032 246.840149,187.000336 245.379471,187.661789 
	C235.307648,192.222717 225.343414,197.155396 214.939575,200.818085 
	C198.717453,206.529129 182.178452,211.341492 165.758820,216.487106 
	C164.514008,216.877197 163.150696,216.889145 161.428146,217.050995 
	C169.598877,214.051010 178.100952,210.804550 186.785858,208.158157 
	C206.207504,202.240158 225.690033,196.538498 243.658279,186.779770 
	C245.227020,185.927780 246.735397,184.964630 248.631760,184.015289 
z"/>
<path fill="#298DAB" opacity="1.000000" stroke="none" 
	d="
M241.331680,218.909790 
	C241.695007,217.382812 242.242447,215.654739 243.068848,214.072311 
	C249.048340,202.622421 255.208160,191.263748 260.967102,179.704895 
	C261.821045,177.990921 260.867249,175.376297 260.451080,173.105713 
	C261.143005,169.924088 262.133636,166.815079 263.269806,163.214996 
	C263.483459,162.484421 263.441803,162.263580 263.290314,162.061401 
	C262.886475,161.266830 262.482666,160.472244 262.359467,159.333710 
	C262.640106,158.989746 263.082947,158.970612 263.082947,158.970612 
	C263.834412,159.278061 264.585907,159.585510 265.909973,159.946381 
	C266.661865,160.004929 266.841187,160.010056 267.020508,160.015182 
	C265.720398,175.164108 260.568970,189.089371 253.058594,202.129333 
	C249.711060,207.941483 245.476761,213.242889 241.331680,218.909790 
z"/>
<path fill="#298DAB" opacity="1.000000" stroke="none" 
	d="
M172.198044,261.824829 
	C177.411789,259.438599 183.131531,257.329285 188.630569,254.749542 
	C196.875595,250.881561 204.957962,246.667648 213.129471,242.641342 
	C214.455307,241.988052 215.884171,241.543869 217.637085,241.006470 
	C205.600540,251.108612 191.369873,257.356262 175.884766,260.961487 
	C174.779358,261.218842 173.697861,261.578857 172.198044,261.824829 
z"/>
<path fill="#278BAB" opacity="1.000000" stroke="none" 
	d="
M160.627869,217.041809 
	C159.536942,218.105133 158.164597,219.409958 156.548294,220.239288 
	C149.395142,223.909653 141.857117,226.950699 135.119980,231.255035 
	C132.188156,233.128159 130.848938,237.494019 128.497162,240.920868 
	C127.458565,235.535019 129.982452,231.303146 134.616440,228.931046 
	C142.987091,224.646164 151.677368,220.985657 160.627869,217.041809 
z"/>
<path fill="#2DB0C9" opacity="1.000000" stroke="none" 
	d="
M84.807922,91.615387 
	C72.404381,91.969925 59.768833,92.051987 47.138329,91.837517 
	C45.186241,91.804367 43.257256,90.411186 41.168537,89.323608 
	C48.447624,89.670738 55.864346,90.559303 63.307186,90.948799 
	C70.383118,91.319099 77.486351,91.167702 84.807922,91.615387 
z"/>
<path fill="#2DB0C9" opacity="1.000000" stroke="none" 
	d="
M39.980835,87.603455 
	C37.859303,89.531235 35.709564,91.092194 33.247169,92.798782 
	C34.802738,88.709473 36.670963,84.474533 38.539192,80.239594 
	C38.870094,80.370827 39.200996,80.502068 39.531898,80.633301 
	C39.672142,82.834412 39.812386,85.035522 39.980835,87.603455 
z"/>
<path fill="#2988A9" opacity="1.000000" stroke="none" 
	d="
M268.338257,153.740723 
	C268.014038,146.279602 268.044739,138.575043 268.083618,130.399078 
	C268.292267,137.784210 268.492706,145.640747 268.338257,153.740723 
z"/>
<path fill="#278BAB" opacity="1.000000" stroke="none" 
	d="
M256.717102,177.148468 
	C257.329834,182.186005 253.612793,183.154694 249.361542,183.977142 
	C251.457870,181.757233 253.935913,179.524078 256.717102,177.148468 
z"/>
<path fill="#298DAB" opacity="1.000000" stroke="none" 
	d="
M219.371048,240.003067 
	C221.447220,238.049072 223.871277,236.053589 226.662445,234.043411 
	C224.592682,236.006348 222.155807,237.983948 219.371048,240.003067 
z"/>
<path fill="#298DAB" opacity="1.000000" stroke="none" 
	d="
M236.329483,224.917297 
	C235.959549,221.976196 236.897186,219.632385 240.673874,219.038666 
	C239.576950,220.943710 238.110367,222.872421 236.329483,224.917297 
z"/>
<path fill="#2988A9" opacity="1.000000" stroke="none" 
	d="
M263.003021,158.641174 
	C263.082947,158.970612 262.640106,158.989746 262.418579,158.996429 
	C261.538452,157.876328 260.879852,156.749512 260.102631,155.313339 
	C260.963715,156.106583 261.943390,157.209167 263.003021,158.641174 
z"/>
<path fill="#2988A9" opacity="1.000000" stroke="none" 
	d="
M267.314819,159.813080 
	C266.841187,160.010056 266.661865,160.004929 266.213165,159.989899 
	C266.333221,159.037796 266.722687,158.095612 267.376678,156.983078 
	C267.630524,157.745483 267.619843,158.678238 267.314819,159.813080 
z"/>
<path fill="#2988A9" opacity="1.000000" stroke="none" 
	d="
M254.087616,149.250671 
	C254.605392,149.449158 255.227829,149.926727 255.930038,150.700439 
	C255.403946,150.507645 254.798111,150.018692 254.087616,149.250671 
z"/>
<path fill="#278BAB" opacity="1.000000" stroke="none" 
	d="
M259.603638,174.924973 
	C259.450653,175.215744 258.996307,175.547653 258.259888,175.933670 
	C258.419281,175.647232 258.860809,175.306671 259.603638,174.924973 
z"/>
<path fill="#298DAB" opacity="1.000000" stroke="none" 
	d="
M234.226501,226.969101 
	C234.168243,226.772430 234.370148,226.505417 234.797974,226.123108 
	C234.844833,226.304779 234.665741,226.601761 234.226501,226.969101 
z"/>
<path fill="#2988A9" opacity="1.000000" stroke="none" 
	d="
M259.039246,154.265213 
	C259.297821,154.116013 259.562286,154.306503 259.883362,154.797852 
	C259.700897,154.851929 259.402588,154.687332 259.039246,154.265213 
z"/>
<path fill="#298DAB" opacity="1.000000" stroke="none" 
	d="
M218.266068,240.955627 
	C218.131180,240.695602 218.331192,240.437805 218.826355,240.125427 
	C218.873352,240.308640 218.699844,240.604309 218.266068,240.955627 
z"/>
<path fill="#2988A9" opacity="1.000000" stroke="none" 
	d="
M267.768311,154.802078 
	C267.448212,154.740738 267.462036,154.435410 267.832520,154.064392 
	C267.950836,154.174973 267.921844,154.361435 267.768311,154.802078 
z"/>
<path fill="#298DAB" opacity="1.000000" stroke="none" 
	d="
M227.268219,233.961655 
	C227.113586,233.703751 227.300858,233.436264 227.802948,233.123825 
	C227.857071,233.305923 227.687866,233.596970 227.268219,233.961655 
z"/>
<path fill="#298DAB" opacity="1.000000" stroke="none" 
	d="
M228.269058,232.958221 
	C228.125473,232.702789 228.318237,232.439514 228.813232,232.122681 
	C228.863510,232.302872 228.693497,232.596619 228.269058,232.958221 
z"/>
<path fill="#298DAB" opacity="1.000000" stroke="none" 
	d="
M229.262451,231.958450 
	C229.204987,231.767120 229.400345,231.500854 229.819138,231.120316 
	C229.866791,231.298523 229.691025,231.591019 229.262451,231.958450 
z"/>
<path fill="#298DAB" opacity="1.000000" stroke="none" 
	d="
M230.262772,230.966705 
	C230.203094,230.774155 230.400299,230.507126 230.817841,230.118164 
	C230.865326,230.294907 230.692474,230.593567 230.262772,230.966705 
z"/>
<path fill="#298DAB" opacity="1.000000" stroke="none" 
	d="
M231.255188,229.966492 
	C231.197906,229.772614 231.399460,229.507233 231.822983,229.121201 
	C231.867981,229.298691 231.691010,229.596848 231.255188,229.966492 
z"/>
<path fill="#298DAB" opacity="1.000000" stroke="none" 
	d="
M232.262589,228.966553 
	C232.199020,228.771851 232.396393,228.499680 232.813858,228.098114 
	C232.863815,228.275513 232.693680,228.582306 232.262589,228.966553 
z"/>
<path fill="#2988A9" opacity="1.000000" stroke="none" 
	d="
M263.241699,162.278961 
	C263.441803,162.263580 263.483459,162.484421 263.357971,162.826553 
	C263.300598,162.929199 263.193115,162.496506 263.241699,162.278961 
z"/>
<path fill="#298DAB" opacity="1.000000" stroke="none" 
	d="
M235.262054,225.953491 
	C235.119904,225.697845 235.315170,225.433365 235.816681,225.117538 
	C235.865158,225.297546 235.690674,225.590363 235.262054,225.953491 
z"/>
<path fill="#2988A9" opacity="1.000000" stroke="none" 
	d="
M258.036346,153.261078 
	C258.286957,153.115845 258.555206,153.306488 258.877747,153.804291 
	C258.699768,153.854919 258.407104,153.683441 258.036346,153.261078 
z"/>
<path fill="#2988A9" opacity="1.000000" stroke="none" 
	d="
M256.061554,151.248062 
	C256.328125,151.105743 256.586609,151.304260 256.883636,151.812195 
	C256.697083,151.860062 256.407532,151.682495 256.061554,151.248062 
z"/>
<path fill="#2DB0C9" opacity="1.000000" stroke="none" 
	d="
M40.930138,88.738098 
	C40.737137,88.808289 40.505360,88.603271 40.164818,88.178108 
	C40.305393,88.159164 40.583836,88.327469 40.930138,88.738098 
z"/>
<path fill="#2988A9" opacity="1.000000" stroke="none" 
	d="
M252.054260,148.224030 
	C252.287628,148.010498 252.560791,148.140198 252.934082,148.542297 
	C252.764221,148.640778 252.450836,148.558319 252.054260,148.224030 
z"/>
<path fill="#278BAB" opacity="1.000000" stroke="none" 
	d="
M257.736755,176.045242 
	C257.892212,176.299622 257.708313,176.566254 257.226379,176.896027 
	C257.168457,176.716385 257.324799,176.415833 257.736755,176.045242 
z"/>
<path fill="#2988A9" opacity="1.000000" stroke="none" 
	d="
M257.028687,152.271103 
	C257.283325,152.132935 257.546600,152.330093 257.872559,152.822021 
	C257.692657,152.870911 257.393341,152.700790 257.028687,152.271103 
z"/>
</svg>