<svg xmlns="http://www.w3.org/2000/svg" width="285" height="278" viewBox="0 0 285 278" version="1.1"><path d="M 0 139.003 L 0 278.007 142.750 277.753 L 285.500 277.500 285.754 138.750 L 286.007 -0 143.004 -0 L 0 0 0 139.003 M 0.486 139.500 C 0.486 215.950, 0.605 247.077, 0.750 208.672 C 0.895 170.266, 0.895 107.716, 0.750 69.672 C 0.605 31.627, 0.486 63.050, 0.486 139.500 M 136 18.573 C 103.059 22.067, 76.446 34.751, 56.175 56.617 C 49 64.357, 48.023 65.905, 45.989 72.757 C 42.762 83.626, 41.337 83.144, 74.445 82.386 C 96.550 81.880, 103.085 82.051, 110.161 83.318 C 123.726 85.747, 130 89.849, 130 96.288 C 130 100.245, 128.561 102.687, 122.635 108.786 C 118.409 113.136, 117.765 114.244, 119 115.045 C 121.996 116.989, 130.836 119.027, 147 121.501 C 195.914 128.987, 221.303 134.117, 235.035 139.288 C 254.053 146.449, 262 153.435, 262 162.990 C 262 172.455, 253.872 180.946, 236.703 189.418 C 225.616 194.889, 216.733 198.039, 173 212.010 C 141.442 222.091, 130.454 228.099, 128.106 236.558 C 125.828 244.763, 127.724 251.369, 134.517 258.887 L 138.233 263 147.366 262.997 C 184.814 262.984, 223.431 242.412, 244.930 211.023 C 267.850 177.559, 273.167 138.365, 260.045 99.616 C 250.429 71.222, 227.186 45.062, 199.096 31.018 C 190.610 26.775, 174.201 21.473, 165.500 20.163 C 157.260 18.922, 140.982 18.045, 136 18.573 M 33.296 89.618 C 26.263 104.794, 22 124.216, 22 141.079 C 22 158.803, 27.624 181.880, 35.679 197.209 C 39.038 203.602, 39.520 204.086, 41.910 203.486 C 48.183 201.912, 67.755 199.948, 96.500 198.009 C 149.184 194.455, 165.936 191.640, 181.579 183.713 C 201.271 173.735, 192.726 165.169, 154.500 156.567 C 148.450 155.205, 132.700 152.022, 119.500 149.493 C 88.737 143.598, 74.662 140.023, 67.954 136.401 C 61.527 132.930, 58.479 128.501, 59.916 124.721 C 61.283 121.126, 70.360 114.971, 85.997 107.037 C 93.447 103.257, 100.358 99.262, 101.355 98.160 C 103.115 96.215, 103.100 96.112, 100.834 94.655 C 96.720 92.009, 87.013 90.823, 65.500 90.339 C 53.950 90.079, 43.257 89.389, 41.737 88.806 C 40.001 88.141, 38.761 86.772, 38.400 85.123 C 38.084 83.681, 37.732 82.103, 37.619 81.618 C 37.505 81.134, 35.560 84.734, 33.296 89.618" stroke="none" fill="#fbfbfb" fill-rule="evenodd"/><path d="M 136 18.573 C 103.059 22.067, 76.446 34.751, 56.175 56.617 C 49 64.357, 48.023 65.905, 45.989 72.757 C 42.762 83.626, 41.337 83.144, 74.445 82.386 C 96.550 81.880, 103.085 82.051, 110.161 83.318 C 123.726 85.747, 130 89.849, 130 96.288 C 130 100.245, 128.561 102.687, 122.635 108.786 C 118.409 113.136, 117.765 114.244, 119 115.045 C 121.996 116.989, 130.836 119.027, 147 121.501 C 195.914 128.987, 221.303 134.117, 235.035 139.288 C 254.053 146.449, 262 153.435, 262 162.990 C 262 172.455, 253.872 180.946, 236.703 189.418 C 225.616 194.889, 216.733 198.039, 173 212.010 C 141.442 222.091, 130.454 228.099, 128.106 236.558 C 125.828 244.763, 127.724 251.369, 134.517 258.887 L 138.233 263 147.366 262.997 C 184.814 262.984, 223.431 242.412, 244.930 211.023 C 267.850 177.559, 273.167 138.365, 260.045 99.616 C 250.429 71.222, 227.186 45.062, 199.096 31.018 C 190.610 26.775, 174.201 21.473, 165.500 20.163 C 157.260 18.922, 140.982 18.045, 136 18.573 M 33.296 89.618 C 26.263 104.794, 22 124.216, 22 141.079 C 22 158.803, 27.624 181.880, 35.679 197.209 C 39.038 203.602, 39.520 204.086, 41.910 203.486 C 48.183 201.912, 67.755 199.948, 96.500 198.009 C 149.184 194.455, 165.936 191.640, 181.579 183.713 C 201.271 173.735, 192.726 165.169, 154.500 156.567 C 148.450 155.205, 132.700 152.022, 119.500 149.493 C 88.737 143.598, 74.662 140.023, 67.954 136.401 C 61.527 132.930, 58.479 128.501, 59.916 124.721 C 61.283 121.126, 70.360 114.971, 85.997 107.037 C 93.447 103.257, 100.358 99.262, 101.355 98.160 C 103.115 96.215, 103.100 96.112, 100.834 94.655 C 96.720 92.009, 87.013 90.823, 65.500 90.339 C 53.950 90.079, 43.257 89.389, 41.737 88.806 C 40.001 88.141, 38.761 86.772, 38.400 85.123 C 38.084 83.681, 37.732 82.103, 37.619 81.618 C 37.505 81.134, 35.560 84.734, 33.296 89.618" stroke="none" fill="#19a0ce" fill-rule="evenodd"/></svg>